<svg viewBox="0 0 171 164" xmlns="http://www.w3.org/2000/svg" xml:space="preserve" fill-rule="evenodd" clip-rule="evenodd" stroke-linejoin="round" stroke-miterlimit="2"><path d="M-259.8-249.8c5.2-8.5 13.3-15.4 22.7-19.7 9.4-4.4 19.9-6.3 29.7-4.6 9.8 1.7 19 7 26.3 14 7.3 7 12.8 15.6 15.4 24.9 2.6 9.4 2.3 19.5-.2 29.1-2.5 9.6-7.4 18.7-14.6 25.6-7.2 6.9-16.8 11.4-26.9 13.1-10.1 1.7-20.8.5-30.2-3.7-9.4-4.2-17.4-11.4-22.5-20.2-5.1-8.8-7.2-19.1-7.2-29.4 0-10.3 2.3-20.5 7.5-29.1Z" fill="url(#a)" fill-rule="nonzero" transform="translate(394.125 395.673) scale(1.43883)"/><path d="M-242.5-240.3c11.4-8.1 19-16.8 30.6-20.9 11.6-4.1 27.2-3.5 38.8 4.6 11.6 8.1 19.1 23.8 17.9 38.2-1.2 14.4-11.2 27.6-22.8 38-11.6 10.4-24.8 18.1-38.9 19-14.1.9-29-5-40.5-15.4-11.4-10.4-19.3-25.4-15.6-36.6 3.8-11.2 19.1-18.8 30.5-26.9Z" fill="url(#b)" fill-rule="nonzero" transform="translate(394.1252 395.6726) scale(1.43883)" opacity=".8"/><path d="M122.474796 92.224153c0 21.006918-17.841492 35.539101-36.977931 35.539101-19.424205 0-36.977931-14.532183-36.977931-35.826867 0-11.222874 4.748139-18.848673 13.093353-29.927664l24.028461-32.229792h29.639898L93.842079 58.843297c14.3883 1.870479 28.632717 14.676066 28.632717 33.380856ZM97.72692 92.08027c0-7.338033-5.467554-12.373938-12.230055-12.373938-6.906384 0-12.230055 5.179788-12.230055 12.373938 0 7.19415 5.323671 12.661704 12.230055 12.661704 6.762501 0 12.230055-5.323671 12.230055-12.661704Z" fill="#fff" fill-rule="nonzero"/><defs><linearGradient id="a" x1="0" y1="0" x2="1" y2="0" gradientUnits="userSpaceOnUse" gradientTransform="rotate(180 -81.9885 -110.3695) scale(103.356)"><stop offset="0" stop-color="#189eff"/><stop offset=".19" stop-color="#1fa5fe"/><stop offset=".47" stop-color="#33b8fb"/><stop offset=".8" stop-color="#54d7f6"/><stop offset="1" stop-color="#6bedf2"/></linearGradient><linearGradient id="b" x1="0" y1="0" x2="1" y2="0" gradientUnits="userSpaceOnUse" gradientTransform="rotate(-90 -187.8665 26.6335) scale(102.418)"><stop offset="0" stop-color="#189eff"/><stop offset=".19" stop-color="#1fa5fe"/><stop offset=".47" stop-color="#33b8fb"/><stop offset=".8" stop-color="#54d7f6"/><stop offset="1" stop-color="#6bedf2"/></linearGradient></defs></svg>